<svg width="240" height="324" fill="none" xmlns="http://www.w3.org/2000/svg"><path d="M21.609 11.308C27.182 7.551 51.795.486 105.66 2.29c35.935-.592 95.569-.252 104.838 4.321m-188.89 4.697c-5.423 2.456-10.846 30.214-10.846 28.86m10.846-28.86l6.326.33m177.594-.33l-7.231.573m7.231-.573c6.304-1.918 7.474-3.462 4.97-4.697m-4.97 4.697h7.004m-35.474 2.255c-28.921 1.503-91.824 3.608-112.069 0m112.069 0c-36.151-9.38-89.775-3.908-112.069 0m112.069 0l-17.171-1.353c-27.867-.902-82.697-1.984-79.082.902 3.616 2.886 54.679-3.156 54.679-3.156m41.574 3.607l11.75-.93m-123.819.93l-17.623-.916M10.763 40.17c2.862.45 8.496 1.082 8.134 0m-8.134 0l-.965-.207c-3.428-.733-7.04-.181-7.585 3.282v0c-.825 5.233 3.826 9.728 9.049 10.616a758.5 758.5 0 004.472.748m12.201-42.97c-3.163 9.059-9.4 27.449-9.038 28.53m9.038-28.53l14.009.727M18.897 40.17c1.964.3 3.922.589 5.875.869m195.669-.87l8.134-.901m-8.134.902c1.808 0-4.519-19.24-7.908-28.86m7.908 28.86c-1.766.36-3.727.728-5.875 1.1m-16.72 2.433c3.046-.374 5.912-.758 8.586-1.146m-8.586 1.146c-.602-9.958.272-24.128 8.586-1.146m-8.586 1.146c-12.444 1.527-27.898 2.884-45.641 3.63m54.227-4.776c2.948-.427 5.664-.86 8.134-1.287m-14.46-7.864c-.151 1.653-.362 5.32 0 6.764.356 1.422 1.913-1.129 2.679-2.641a.125.125 0 00-.008-.126v0c-.086-.128-.284-.019-.219.122l1.615 3.547-1.345-2.91a41.807 41.807 0 00-3.174-5.658v0m-10.845-19.87l4.519 5.89m-4.519-5.89l9.489-.752m-4.97 6.642c-1.808-2.774-1.898-5.823 4.97-6.642m-4.97 6.642c.451 1.353 4.609-6.905 4.97-6.642m21.239-.573l-9.038-4.697m9.038 4.697c3.615 8.568 10.484 26.155 9.038 27.959m-9.038-27.959h-7.004m16.042 27.959h1.646c2.775 0 4.338-.649 5.906 1.64v0c3.462 5.051-2.134 12.68-8.08 14.145-1.132.278-2.312.557-3.539.835m-208.774-1.28c1.808 18.787 4.971 56.36 3.163 56.36m-3.163-56.36c1.36.224 2.716.444 4.067.658m-.904 55.702c-1.958-.301-5.874.18-5.874 4.509L24.992 224.68c.429 3.913 2.83 7.215 6.107 9.395v0M18.897 110.967l-3.24 2.874a2.457 2.457 0 00-.827 1.838v.775a1.53 1.53 0 001.257 1.505l.159.029c1.294.235 2.218-1.224 1.452-2.294l-.075-.104a.76.76 0 00-.197-.191v0a.76.76 0 01.154-1.346l1.607-.602a1.202 1.202 0 011.139.163l.225.169a.989.989 0 010 1.583v0a.988.988 0 00-.23 1.34l.23.344a1.424 1.424 0 002.278.122l.774-.927a1.46 1.46 0 01.658-.449v0a1.458 1.458 0 011.597.472l.07.085c.592.741.423 1.83-.366 2.356l-1.153.766a2.845 2.845 0 00-1.274 2.663c3.502 35.002 9.742 103.773 7.963 111.936m-12.2-123.107a198.177 198.177 0 009.82 3.607m2.38 119.5l2.34 53.718c.234 5.357 2.95 10.35 7.602 13.016v0m-9.94-66.734c3.479 1.43 7.574 2.92 12.2 4.392m166.297-6.196l-4.184 53.893c-.498 6.411-3.835 12.326-9.373 15.592v0m13.557-69.485v0c4.983-1.657 5.321-8.031 6.002-13.239 3.804-29.087 9.367-73.859 10.913-93.93.516-6.699-.306-15.106-6.974-15.938v0m-9.941 123.107c-1.348.62-2.7 1.221-4.055 1.804m13.996-124.911l4.971-53.276m-4.971 53.276l-.721 4.077c-.071.404.503.561.648.178v0a.318.318 0 01.283-.211c1.287-.045 1.166.809-.21.465-1.108-.276.367-1.364 1.252-1.926.35-.222.776-.255 1.169-.124v0c.468.155.834.522.99.989l.204.611.554 2.485a1.576 1.576 0 01-1.23 1.888l-.437.088c-1.059.211-1.921-.853-1.495-1.846l.316-.736a.127.127 0 01.116-.076v0c.152 0 .173.22.024.249l-3.171.633a.445.445 0 00-.18.081l-1.727 1.292m8.586-61.393c-1.579.357-3.236.713-4.971 1.065m-3.615 60.328c-2.011 38.33-6.902 115.351-10.381 116.794m10.381-116.794c-1.727.447-3.574.899-5.534 1.353m-4.847 115.441a183.771 183.771 0 01-8.598 3.442m0 0l7.682-117.616m-7.682 117.616a191.064 191.064 0 01-14.461 4.716M204.625 119.9c.456-.095.908-.191 1.356-.287m-1.356.287c-1.175.245-2.38.49-3.615.733m-11.749 2.103l-6.779 119.496m6.779-119.496a407.132 407.132 0 01-13.557 1.963m13.557-1.963c1.854-.301 3.662-.608 5.422-.921m-12.201 120.417a201.08 201.08 0 01-11.297 2.842m4.519-120.375l-4.519 120.375m4.519-120.375a431.781 431.781 0 01-12.653 1.428m8.134 118.947c-3.771.834-7.54 1.557-11.297 2.176m3.163-121.123l-3.163 121.123m3.163-121.123c-4.679.458-9.509.855-14.461 1.173m11.298 119.95a223.73 223.73 0 01-14.009 1.849M148.59 127.3l-2.711 121.799M148.59 127.3a425.43 425.43 0 01-11.297.577m8.586 121.222c-2.877.289-5.74.521-8.586.702m0-121.924v121.924m0-121.924c-5.906.223-11.946.326-18.076.284m18.076 121.64c-6.119.387-12.157.534-18.076.476m0-122.116v122.116m0-122.116a376.009 376.009 0 01-16.268-.457m16.268 122.573a262.25 262.25 0 01-13.43-.476m-2.838-122.097l2.838 122.097m-2.838-122.097c-3.9-.195-7.82-.455-11.749-.785m14.587 122.882a270.27 270.27 0 01-11.424-.942M91.2 126.919l3.163 121.94M91.2 126.919c-4.963-.417-9.94-.947-14.912-1.601m18.075 123.541a274.442 274.442 0 01-14.46-1.888m-3.615-121.653l3.615 121.653m-3.615-121.653a290.666 290.666 0 01-11.298-1.71m14.913 123.363a271.706 271.706 0 01-10.657-1.897M64.99 123.608l4.256 121.466M64.99 123.608a263.162 263.162 0 01-14.008-2.79m18.264 124.256a259.66 259.66 0 01-12.656-2.842m-5.608-121.414l5.608 121.414m-5.608-121.414c-1.057-.24-2.111-.488-3.163-.742m8.771 122.156a225.209 225.209 0 01-13.29-3.766m-8.134-121.827L43.3 238.466m-8.134-121.827a213.041 213.041 0 01-3.718-1.163m3.718 1.163c1.236.375 2.477.738 3.722 1.092m-15.02-34.272l-4.067-28.194m4.067 28.194V55.901m0 27.558c-1.807-10.822-3.886-30.934 2.26-24.802 4.469 4.46 4.11 3.785 2.714 2.102-.516-.622-1.504-.162-1.377.637v0c.147.928 1.725.932 1.965.023.654-2.476 1.54-4.205 2.572-2.762 1.386 1.936 3.922 2.406 5.777 2.384.761-.009 1.453.571 1.453 1.332v0c0 1.318 1.8 1.7 2.336.495l1.87-4.21M19.8 55.264c1.36.217 2.716.429 4.067.636m0 0a781.032 781.032 0 0019.57 2.756m0 0c68.665 8.783 123.172 6.327 158.476 1.3M30.194 23.935l-5.422 17.103m0 0a653.96 653.96 0 0012.201 1.63m3.615-9.714l-3.615 9.715m0 0a689.92 689.92 0 0048.353 4.265M44.203 21.229l-2.26-8.864m2.26 8.864l3.164-8.582m-3.164 8.582l.452-8.723m-2.711-.14l2.711.14m2.712.141l-2.712-.14m40.67 34.427c.151-2.105.904-6.585 2.712-7.667m-2.712 7.667a707.977 707.977 0 0064.169.507m-61.457-8.174c1.378-.825 1.618 2.316 1.52 5.187-.03.909-1.15 1.25-1.719.54v0a1.015 1.015 0 01-.22-.72l.419-5.007zm61.457 8.173c.452-2.874 1.717-8.444 3.163-7.722m-3.163 7.722c.91-.034 1.813-.07 2.711-.108m.452-7.614c1.022.51 1.503 2.852 1.696 4.924.124 1.322-.841 2.46-2.148 2.69v0m.452-7.614l-.452 7.614m62.361-6.063l-4.067-16.432m9.038 32.115c0 .355-.002.708-.007 1.059-.07 5.295-3.148 4.753-2.704-.525v0m2.711-.534c-.883.179-1.787.357-2.711.534m2.711-.534l-2.711.534m0 0a285.27 285.27 0 01-4.971.907m0 0c0 4.748-.09 13.432-.452 10.185-.361-3.247-1.958-7.789-2.711-9.654m3.163-.531c-1.033.179-2.088.356-3.163.531m0 0c-2.174.354-4.434.7-6.778 1.033m0 0c0 3.475-.272 10.154-1.356 9.072-1.085-1.082-1.356-6.163-1.356-8.568m6.779 59.152c.451-7.091 1.626-20.912 2.711-19.469m-2.711 19.469c.824-.176 1.632-.353 2.423-.529m.288-18.94c1.084 1.443 1.583 12.927 1.696 18.489m-1.696-18.489l-.288 18.94m1.984-.451c-.649.15-1.31.3-1.984.451m-16.884 3.156c0-4.058.271-11.814 1.356-10.371 1.084 1.443 1.657 7.232 1.807 9.946m0 0a361.99 361.99 0 001.808-.325m0 0c.301-5.312 1.084-15.393 1.807-13.229m-1.807 13.229c.763-.14 1.516-.28 2.259-.421m-.452-12.808c.723 2.165 2.109 9.15 2.712 12.372m-2.712-12.372l.452 12.808m2.26-.436c-.743.146-1.496.292-2.26.436M41.04 300.808c.753-13.977 2.26-41.21 2.26-38.324v39.589m-2.26-1.265c.735.421 1.488.843 2.26 1.265m0 0c1.72.941 3.53 1.882 5.422 2.814m0 0c.603-7.52 1.898-21.57 2.26-17.602.361 3.969.753 14.397.904 19.115m-3.164-1.513a145.4 145.4 0 003.163 1.513m0 0a162.408 162.408 0 007.683 3.327m0 0c.602-4.925 1.807-14.415 1.807-12.972 0 1.443.603 9.959.904 14.037m-2.711-1.065c.891.359 1.795.714 2.711 1.065m0 0c29.332 11.231 71.098 17.841 113.425.961m0 0c.602-5.45 1.807-15.99 1.807-14.547 0 1.443.904 9.429 1.356 13.242m-3.163 1.305c1.054-.421 2.108-.856 3.163-1.305m0 0a146.303 146.303 0 008.586-3.997m0 0c.452-6.539 1.356-19.075 1.356-16.911 0 2.165.602 11.399.903 15.745m-2.259 1.166c.753-.38 1.507-.769 2.259-1.166m0 0c1.086-.571 2.17-1.16 3.254-1.766m0 0c1.326-19.691 3.977-54.564 3.977-36.526 0 18.038-.603 30.69-.904 34.762m-3.073 1.764c1.025-.572 2.049-1.16 3.073-1.764M28.718 114.574c.341-5.11 1.115-14.88 1.477-13.077.361 1.804.986 10.071 1.253 13.979m-2.73-.902c.907.307 1.817.608 2.73.902m7.44 2.255c.868-4.509 2.514-12.176 2.152-6.764-.012.178-.021.347-.029.506-.198 4.201 6.737-2.44 6.356 1.749v0c-.362 3.968.15 6.222.452 6.854m-8.931-2.345a235.68 235.68 0 008.93 2.345m-6.778-3.698c1.356.301 4.157.902 4.519.902.36 0-.147-3.283-.449-4.942a.219.219 0 01-.003-.037v0c0-.221-.289-.287-.381-.087-.45.978-.975 2.261-.975 2.811 0 .722-2.41 1.203-3.615 1.353" stroke="#444A4A" stroke-width="4"/></svg>