<svg width="36" height="40" fill="none" xmlns="http://www.w3.org/2000/svg"><path d="M30.903 2.344c-.854 0-1.654.23-2.344.63V1.172A1.171 1.171 0 0027.387 0H8.637C7.99 0 7.465.525 7.465 1.172v1.817a4.657 4.657 0 00-2.368-.645A4.693 4.693 0 00.409 7.03a9.79 9.79 0 001.69 5.51c1.881 2.778 4.202 3.5 6.122 4.267a10.603 10.603 0 006.138 5.977l-.864 5.496h-.17a3.52 3.52 0 00-3.516 3.516v5.86H8.637a1.172 1.172 0 000 2.343h18.75a1.172 1.172 0 000-2.344h-1.172v-5.86A3.52 3.52 0 0022.7 28.28h-.17l-.864-5.496a10.604 10.604 0 006.143-5.988c1.814-.726 4.191-1.45 6.092-4.257a9.79 9.79 0 001.69-5.509 4.693 4.693 0 00-4.688-4.687zM7.457 13.979A7.447 7.447 0 012.753 7.03a2.346 2.346 0 012.344-2.343A2.346 2.346 0 017.44 7.03c0 .083.008.163.025.24v5.62c0 .376.02.748.059 1.115l-.068-.027zm16.415 23.677H12.153v-2.343h11.719v2.343zM22.7 30.625c.646 0 1.172.526 1.172 1.172v1.172H12.153v-1.172c0-.646.526-1.172 1.172-1.172H22.7zm-6.833-2.344l.776-4.932a10.603 10.603 0 002.74 0l.775 4.932h-4.29zm10.348-15.39c0 4.523-3.68 8.203-8.203 8.203S9.81 17.414 9.81 12.89V7.03h16.407v5.86zm0-8.204H9.81V2.345h16.407v2.344zm2.328 9.292l-.041.016c.038-.363.057-.731.057-1.104V7.03a2.347 2.347 0 012.344-2.343 2.346 2.346 0 012.344 2.343 7.447 7.447 0 01-4.704 6.948z" fill="#3A3A3A"/></svg>