<svg width="56" height="35" fill="none" xmlns="http://www.w3.org/2000/svg"><path d="M6.094 15.573a1.94 1.94 0 011.443.144l2.418 1.266 5.6 2.17 6.223 3.257 2.215 1.16a5.001 5.001 0 001.904.552l12.058 1.002 15.886.478c.77.023 1.112.978.531 1.484a.847.847 0 01-.556.209h-.927.427a.52.52 0 11-.016 1.042l-16.589-.5-12.66-1.505a5 5 0 01-1.924-.643l-5.957-3.464a4.997 4.997 0 00-1.304-.53l-7.79-1.94a2.299 2.299 0 01-.447-.163l-.84-.407c-1.6-.775-1.403-3.116.305-3.612z" fill="#2D635E"/><path d="M10.02 29.162a.043.043 0 01.021-.073l3.215-.576c.493-.088.97-.25 1.415-.48l2.129-1.1 3.375-2.086a5.416 5.416 0 012.847-.809c.577 0 1.098-.343 1.326-.873l.243-.565a.01.01 0 01.013-.006l4.579 1.598a1.35 1.35 0 01.684 2.017 8.159 8.159 0 01-2.846 3.517l-.267.187a9.276 9.276 0 01-1.955 1.041l-2.693 1.044a11.84 11.84 0 01-11.668-2.458l-.418-.378z" fill="#2D635E"/><path d="M26.704 7.785c-.102-.187-.384-.122-.42.096l-.648 3.925-.417 2.84-.654 2.701a21.529 21.529 0 00-.598 5.792.1.1 0 00.019.055l.52.722.62 1.068a.03.03 0 00.017.013l1.195.362c.274.083.521.234.72.44l.45.466c.94.974 2.626.222 2.672-1.192.003-.086.012-.172.029-.258l.232-1.213c.395-2.058.413-4.152.056-6.172l-.131-.743a19.857 19.857 0 00-2.103-6.037l-1.559-2.865zM2.347 6.152a7.528 7.528 0 014.562-2.98l2-.424a12.794 12.794 0 003.742-1.432L14.908.014a.016.016 0 01.024.015l-.03.704a12.874 12.874 0 01-5.875 10.28 3.25 3.25 0 00-1.352 4.092L8.4 16.79a.03.03 0 01.001.021l-.74 2.286a.865.865 0 01-.823.598 4.32 4.32 0 01-1.207-.172l-1.893-.55A6.649 6.649 0 01.46 12.512l.16-1.492a.05.05 0 01.004-.014l.31-.71a.038.038 0 00.003-.015 6.73 6.73 0 011.26-3.922l.149-.207z" fill="#2D635E"/><path d="M4.123 7.049c-.575.472-.858 1.542-.928 2.017-.105.466-.239.19-.4-.044.205.04.512-.045.105-.714a1.084 1.084 0 01.21-1.426c.17.278.55.55.719-.591.21-1.427 1.945-.347 1.331-.469-.49-.098-.683.353-.718.591.204.04.256.163-.319.636zm9.755 23.475c.457.314 1.387.566 1.795.653.404.101.185.13.003.175.014-.088-.09-.236-.612-.13-.523.104-1.034-.131-1.224-.262.217-.044.408-.183-.571-.392-1.224-.261-.488-.916-.53-.654-.033.21.367.349.571.392.014-.087.111-.096.568.218z" fill="#fff" stroke="#fff" stroke-width=".1"/></svg>